Coordinates
version=1
nRows=6
nColumns=36
inDegrees=yes

Units are S.I. units (second, meters, Newtons, ...)
If the header above contains a line with 'inDegrees', this indicates whether rotational values are in degrees (yes) or radians (no).

endheader
time	pelvis_tilt	pelvis_list	pelvis_rotation	pelvis_tx	pelvis_ty	pelvis_tz	hip_flexion_r	hip_adduction_r	hip_rotation_r	knee_angle_r	knee_angle_r_beta	ankle_angle_r	subtalar_angle_r	mtp_angle_r	hip_flexion_l	hip_adduction_l	hip_rotation_l	knee_angle_l	knee_angle_l_beta	ankle_angle_l	subtalar_angle_l	mtp_angle_l	lumbar_extension	lumbar_bending	lumbar_rotation	arm_flex_r	arm_add_r	arm_rot_r	elbow_flex_r	pro_sup_r	arm_flex_l	arm_add_l	arm_rot_l	elbow_flex_l	pro_sup_l
      1.08000000	     -2.58787054	     -0.50128301	      5.14184724	      1.07133002	      0.94874959	     -0.23491850	     27.66068847	     -0.30602937	     -5.05495444	      8.73648423	      0.15248041	     -2.33576697	     -0.61064902	     -7.41827010	     -7.25372175	      3.50070417	     -9.84880848	      4.51623214	      0.07882312	     19.74403460	     12.20791200	     -7.41827010	     -2.26076286	     -4.36546525	    -11.06731531	     -6.72654574	     -0.97218001	    -33.60923702	     25.24617537	    100.94854255	     24.61399565	    -11.26488127	      0.75554581	     42.37958541	    104.45056627
      1.09000000	     -2.88446047	     -0.25783431	      5.13106694	      1.08125288	      0.94651116	     -0.23469921	     27.51555198	     -0.35084329	     -5.11135270	      5.50151153	      0.09601949	     -2.19564320	      0.21566751	     -7.41932964	     -7.63504335	      3.71063459	     -9.79704286	      4.53263901	      0.07910947	     20.02592471	     12.32348909	     -7.41932964	     -2.00785093	     -4.71936081	    -11.02463214	     -7.53935487	     -1.14827351	    -33.70091765	     24.79860214	    101.06552905	     25.47774717	    -11.31344336	      0.95688469	     43.16385838	    104.57435726
      1.10000000	     -3.07522935	     -0.02303895	      5.11140981	      1.09126193	      0.94442154	     -0.23443294	     27.38707513	     -0.40112668	     -5.49171706	      2.88992636	      0.05043873	     -1.96260081	      1.14729134	     -7.42094626	     -8.12303866	      3.89574173	     -9.77496189	      4.57232966	      0.07980221	     20.38014390	     12.40564366	     -7.42094626	     -1.90095768	     -5.04116598	    -10.96863525	     -8.27668746	     -1.32147761	    -33.72059009	     24.32043975	    101.32780377	     26.30236118	    -11.36104071	      1.23498139	     43.90440961	    104.72319518
      1.11000000	     -3.34926744	      0.16844676	      5.13012258	      1.10130477	      0.94225207	     -0.23423839	     27.66870558	     -0.50108576	     -6.70975911	      1.37725048	      0.02403756	     -0.84386003	      3.10880581	     -7.42462277	     -8.43752667	      4.03221417	     -9.60003514	      4.77546626	      0.08334761	     20.61863958	     12.38735027	     -7.42462277	     -1.69143011	     -5.30552739	    -10.90965453	     -8.99160002	     -1.53119057	    -33.60498823	     23.79182405	    101.98584014	     27.06304387	    -11.34808169	      1.53561791	     44.58222414	    104.92308332
      1.12000000	     -3.67584892	      0.38735409	      5.06972669	      1.11128550	      0.94002999	     -0.23386962	     28.19736845	     -0.58179396	     -7.35752073	      0.71401170	      0.01246186	     -0.18558523	      3.37874649	     -7.42518221	     -8.64306213	      4.20900584	     -9.48500019	      5.06004264	      0.08831440	     20.74662800	     12.26615181	     -7.42518221	     -1.43622642	     -5.59925536	    -10.72836171	     -9.65848690	     -1.66538924	    -33.68924483	     23.43561075	    102.05065476	     27.77933384	    -11.19533906	      1.55940074	     45.28337119	    105.00192939
      1.13000000	     -3.92098624	      0.46190894	      5.21218991	      1.12164451	      0.93817892	     -0.23375071	     28.63303828	     -0.66755991	     -9.11227032	      0.59923240	      0.01045858	      1.52327914	      6.02903680	     -7.42906902	     -8.93713311	      4.21488533	     -8.75101350	      5.34568652	      0.09329983	     20.82416919	     11.43932972	     -7.42906902	     -1.27132489	     -5.68964820	    -10.91256497	    -10.21226177	     -1.86851368	    -33.60652618	     22.95263830	    102.58942523	     28.18456776	    -11.15427863	      1.52385527	     46.04553382	    105.15143003
